<?xml version="1.0" encoding="utf-8"?>
<!-- Generator: Adobe Illustrator 19.1.0, SVG Export Plug-In . SVG Version: 6.00 Build 0)  -->
<svg version="1.1" id="Слой_1" xmlns="http://www.w3.org/2000/svg" xmlns:xlink="http://www.w3.org/1999/xlink" x="0px" y="0px"
	 viewBox="0 0 597.2 176.5" style="enable-background:new 0 0 597.2 176.5;" xml:space="preserve">
<style type="text/css">
	.st0{fill:#941611;}
	.st1{fill:#C20B19;}
	.st2{fill:#84160C;}
	.st3{fill:#FFFFFF;}
</style>
<rect x="176.5" y="21.9" class="st0" width="43.9" height="66.3"/>
<rect x="74.5" y="99.5" transform="matrix(0.7071 0.7071 -0.7071 0.7071 121.4424 -50.3035)" class="st0" width="93.8" height="43.9"/>
<g>
	<path class="st1" d="M21.9,0C9.8,0,0,9.8,0,21.9v132.7c0,12.1,9.8,21.9,21.9,21.9c12.1,0,21.9-9.8,21.9-21.9V21.9
		C43.9,9.8,34,0,21.9,0"/>
	<path class="st2" d="M103.8,72.8l-31,31l11,11c1.4,0.3,2.9,0.5,4.5,0.5h58L103.8,72.8z"/>
	<path class="st1" d="M198.5,132.7h-43.9c-12.1,0-21.9,9.8-21.9,21.9c0,12.1,9.8,21.9,21.9,21.9h43.9c12.1,0,21.9-9.8,21.9-21.9
		C220.4,142.5,210.6,132.7,198.5,132.7"/>
	<path class="st1" d="M198.5,66.3H88.3c-12.1,0-21.9,9.8-21.9,21.9c0,12.1,9.8,21.9,21.9,21.9h110.2c12.1,0,21.9-9.8,21.9-21.9
		C220.4,76.2,210.6,66.3,198.5,66.3"/>
	<path class="st2" d="M220.4,21.9h-43.9v27h21.9c12.1,0,21.9-9.8,21.9-21.9V21.9z"/>
	<path class="st1" d="M198.5,0H88.3C76.2,0,66.3,9.8,66.3,21.9c0,12.1,9.8,21.9,21.9,21.9h110.2c12.1,0,21.9-9.8,21.9-21.9
		C220.4,9.8,210.6,0,198.5,0"/>
	<path class="st3" d="M572.5,39.9h24.8v-3.5h-20.9V24.6h18.5v-3.5h-18.5V9.5H597V6h-24.5V39.9z M550.5,39.9h3.9V9.6h11.4V6h-26.6
		v3.5h11.4V39.9z M514.5,27.5l7.8-17.3l7.7,17.3H514.5z M505.1,39.9h3.9l4-9h18.5l4,9h4.1L524.1,5.8h-3.6L505.1,39.9z M490.4,39.9
		h3.9V9.6h11.4V6H479v3.5h11.4V39.9z M462.1,40.4c6.7,0,11.6-3.8,11.6-9.6c0-5.3-3.5-8-11-9.7c-7.5-1.6-9.2-3.4-9.2-6.6
		c0-3.1,2.8-5.6,7.2-5.6c3.5,0,6.6,1.1,9.8,3.7l2.2-3c-3.4-2.8-7-4.2-11.9-4.2c-6.4,0-11.1,3.9-11.1,9.3c0,5.7,3.6,8.2,11.4,9.9
		c7.1,1.5,8.8,3.3,8.8,6.4c0,3.4-3,5.9-7.6,5.9c-4.7,0-8.1-1.6-11.6-4.8l-2.4,2.8C452.3,38.6,456.7,40.4,462.1,40.4 M417.9,39.9
		h24.8v-3.5h-20.9V24.6h18.5v-3.5h-18.5V9.5h20.7V6h-24.5V39.9z M373.4,39.9h22.9v-3.5h-19.1V6h-3.8V39.9z M341.8,27.5l7.8-17.3
		l7.7,17.3H341.8z M332.4,39.9h3.9l4-9h18.5l4,9h4.1L351.4,5.8h-3.6L332.4,39.9z M302.1,39.9h24.8v-3.5h-20.9V24.6h18.5v-3.5h-18.5
		V9.5h20.7V6h-24.5V39.9z M270.7,23.3V9.6h10.5c5.5,0,8.7,2.5,8.7,6.7c0,4.5-3.6,7.1-8.7,7.1H270.7z M266.9,39.9h3.8V26.8h9.7
		l9.8,13.2h4.7l-10.4-13.9c5.3-1,9.2-4.3,9.2-9.9c0-2.8-1-5.1-2.6-6.8C289,7.3,285.6,6,281.5,6h-14.6V39.9z"/>
	<path class="st3" d="M460,103.8h9.4V91l12.9-21.1h-10.5l-7,12.4l-7-12.4h-10.7L460,91.1V103.8z M425.3,103.8h9.4V78.1h10.2v-8.2
		h-29.7v8.2h10.2V103.8z M401.8,103.8h9.4V69.9h-9.4V103.8z M372.2,103.8H398v-8.2h-16.4V69.9h-9.4V103.8z M345.9,90.4l3.8-9.6
		l3.8,9.6H345.9z M330.8,103.8h9.9l2.4-6.1h13.1l2.5,6.1h10.1l-14.4-34.2h-9.1L330.8,103.8z M300.5,103.8H328v-8h-18.2v-5.4h16.3V83
		h-16.3v-5.1h18v-8h-27.3V103.8z M274.5,86.2V78h6.2c3.2,0,5.1,1.4,5.1,4c0,2.6-1.8,4.1-5,4.1H274.5z M265.1,103.8h9.4V93.5h4.1
		l6.8,10.3h10.9L288.2,92c4.2-1.8,7-5.2,7-10.4c0-3.4-1-6.1-3-8c-2.3-2.3-5.9-3.6-11-3.6h-16V103.8z"/>
</g>
</svg>
